<svg width="20" height="19" viewBox="0 0 20 19" fill="none" xmlns="http://www.w3.org/2000/svg">
<path fill-rule="evenodd" clip-rule="evenodd" d="M19.6099 16.8467L14.5273 11.9953C15.4944 10.7141 16.0124 9.17635 16.0081 7.6C16.0081 3.40733 12.4196 0 8.00403 0C3.58847 0 0 3.40733 0 7.6C0 11.7927 3.58847 15.2 8.00403 15.2C9.73824 15.2 11.3124 14.6807 12.633 13.794L17.7423 18.62C17.9957 18.8733 18.3426 19 18.6761 19C19.0096 19 19.3698 18.886 19.6099 18.62C19.7335 18.5028 19.8317 18.3636 19.8986 18.2104C19.9655 18.0572 20 17.8929 20 17.727C20 17.5611 19.9655 17.3968 19.8986 17.2436C19.8317 17.0904 19.7335 16.9512 19.6099 16.834V16.8467ZM8.00403 13.5533C4.54896 13.5533 1.73421 10.8807 1.73421 7.6C1.73421 4.31933 4.54896 1.64667 8.00403 1.64667C11.4591 1.64667 14.2739 4.31933 14.2739 7.6C14.2739 10.8807 11.4591 13.5533 8.00403 13.5533Z" fill="white"/>
</svg>
